<svg width="24" height="24" viewBox="0 0 24 24" fill="none" xmlns="http://www.w3.org/2000/svg">
    <path fill-rule="evenodd" clip-rule="evenodd" d="M16.2426 7.75725C16.6332 8.14777 16.6332 8.78094 16.2426 9.17146L13.4142 11.9999L16.2426 14.8283C16.6332 15.2188 16.6332 15.852 16.2426 16.2425C15.8521 16.6331 15.2189 16.6331 14.8284 16.2425L12 13.4141L9.17157 16.2425C8.78105 16.6331 8.14788 16.6331 7.75736 16.2425C7.36683 15.852 7.36683 15.2188 7.75736 14.8283L10.5858 11.9999L7.75736 9.17146C7.36683 8.78094 7.36683 8.14777 7.75736 7.75725C8.14788 7.36673 8.78104 7.36673 9.17157 7.75725L12 10.5857L14.8284 7.75725C15.2189 7.36672 15.8521 7.36672 16.2426 7.75725Z" fill="black"/>
</svg>
