<svg width="17" height="17" viewBox="0 0 17 17" fill="none" xmlns="http://www.w3.org/2000/svg">
    <path fill-rule="evenodd" clip-rule="evenodd" d="M9.83073 2.62582C10.6606 1.79595 12.0061 1.79595 12.8359 2.62582L14.3741 4.16401C15.204 4.99388 15.204 6.33935 14.3741 7.16922L6.87587 14.6675C6.74303 14.8003 6.56286 14.8749 6.375 14.8749H2.83333C2.44213 14.8749 2.125 14.5578 2.125 14.1666V10.6249C2.125 10.4371 2.19963 10.2569 2.33247 10.1241L9.83073 2.62582ZM11.8342 3.62755C11.5576 3.35093 11.1091 3.35093 10.8325 3.62755L10.2101 4.24995L12.75 6.78988L13.3724 6.16748C13.649 5.89086 13.649 5.44237 13.3724 5.16575L11.8342 3.62755ZM11.7483 7.79162L9.20833 5.25168L3.54167 10.9183V13.4583H6.0816L11.7483 7.79162Z" fill="black"/>
</svg>
