<svg width="10" height="10" viewBox="0 0 10 10" fill="none" xmlns="http://www.w3.org/2000/svg">
    <path fill-rule="evenodd" clip-rule="evenodd" d="M8.77817 0.292893C9.1687 0.683417 9.1687 1.31658 8.77818 1.70711L5.94975 4.53553L8.77818 7.36396C9.1687 7.75449 9.1687 8.38765 8.77818 8.77818C8.38765 9.1687 7.75449 9.1687 7.36396 8.77818L4.53553 5.94975L1.70711 8.77818C1.31658 9.1687 0.683418 9.1687 0.292894 8.77818C-0.0976306 8.38765 -0.0976306 7.75449 0.292894 7.36396L3.12132 4.53553L0.292893 1.70711C-0.0976311 1.31658 -0.0976311 0.683419 0.292893 0.292895C0.683417 -0.0976299 1.31658 -0.0976299 1.70711 0.292894L4.53553 3.12132L7.36396 0.292893C7.75449 -0.0976311 8.38765 -0.0976311 8.77817 0.292893Z" fill="black"/>
</svg>
