<svg width="48" height="50" viewBox="0 0 48 50" fill="none" xmlns="http://www.w3.org/2000/svg">
<path d="M40.9705 41.0881C45.5031 36.5425 48 30.4981 48 24.0689C48 17.6397 45.5031 11.596 40.9705 7.05037C36.4372 2.5041 30.4108 0 24 0C17.5892 0 11.5628 2.5041 7.0295 7.05037C2.49625 11.5966 0 17.6404 0 24.0689C0 30.4974 2.49693 36.5425 7.0295 41.0881C7.51005 41.5693 8.0071 42.0285 8.51997 42.4636C8.29516 43.2909 8.16385 44.1341 8.34809 44.9408C8.41684 45.2428 8.40241 45.5571 8.81008 45.6157C8.98952 45.6413 9.40957 46.0618 9.55875 46.1597C16.5271 50.7605 26.0164 50.7212 33.8447 48.6797C35.5353 48.2391 37.1158 47.609 38.6936 46.8768C39.1115 46.6823 39.2188 46.3955 39.2738 46.0294C39.2965 45.8777 39.3033 45.7219 39.3027 45.5661C38.9025 44.9504 38.675 44.1658 38.675 43.4805C38.675 43.3564 38.6832 43.2295 38.697 43.102C39.4897 42.4842 40.2493 41.8127 40.9712 41.0888L40.9705 41.0881ZM13.9903 43.193C13.9346 43.2537 13.8679 43.304 13.795 43.3695C13.7861 43.3205 13.7703 43.2909 13.7792 43.2792C14.1766 42.7007 14.1621 42.7207 13.584 42.2553C13.1392 41.8975 12.728 41.4949 12.3279 41.086C12.2331 40.9902 12.1698 40.7703 12.2111 40.6475C12.9116 38.5433 13.6417 36.4501 14.7176 34.5003C14.7355 34.4679 14.7582 34.4397 14.7795 34.4093C14.8001 34.4224 14.8207 34.4355 14.8414 34.448C14.6035 34.945 14.3354 35.4311 14.1326 35.9427C13.5365 37.4485 12.9707 38.966 12.3788 40.4745C12.2654 40.7634 12.3355 40.9619 12.5507 41.1474C13.0127 41.5452 13.474 41.9451 13.9353 42.3443C14.246 42.6123 14.2641 42.8954 13.9896 43.1937L13.9903 43.193ZM14.8867 42.4118C14.8524 42.4112 14.818 42.4105 14.7836 42.4091L14.9844 35.1995C15.0339 35.1974 15.084 35.1939 15.1342 35.1919L14.8867 42.4125V42.4118ZM16.1029 22.3928C16.0754 22.4728 15.8602 22.5376 15.7399 22.5245C15.2002 22.4638 14.664 22.3735 14.1443 22.2956C13.5537 22.3763 12.9907 22.4645 12.4262 22.5197C12.3211 22.5293 12.1341 22.4328 12.1017 22.3432C11.6817 21.1718 12.3479 19.886 13.5111 19.5854C14.9218 19.2199 16.1847 20.1162 16.2562 21.5786C16.27 21.8488 16.1936 22.1336 16.1029 22.3921V22.3928ZM17.7157 22.208C17.4256 22.2205 17.3232 22.1157 17.3527 21.8351C17.3692 21.6841 17.3665 21.5289 17.3541 21.3766C17.2922 20.5878 17.7233 20.4306 18.287 20.3651C18.45 20.3465 18.6163 20.3444 18.7806 20.3403C19.6964 20.3203 20.522 20.6126 21.2666 21.1449C21.6791 21.44 21.7409 22.2432 21.3614 22.5755C21.3188 22.6134 21.2239 22.6203 21.1641 22.6024C20.0367 22.2715 18.8838 22.157 17.715 22.208H17.7157ZM19.2433 35.4173C19.7658 37.3326 19.8531 39.5223 19.9487 41.7107L19.2433 35.4173ZM22.7749 45.653C22.8155 45.4586 22.821 45.3469 22.8629 45.2503C22.9963 44.9428 22.8423 44.7463 22.6292 44.5588C22.1039 44.0962 21.5794 43.6329 21.061 43.1634C20.6685 42.8069 20.6733 42.7166 21.0672 42.3526C21.4783 41.9727 21.8798 41.5824 22.3047 41.2184C22.5652 40.995 22.6264 40.7516 22.4917 40.4476C21.9156 39.1425 21.3683 37.8242 20.7475 36.5404C20.4038 35.8289 19.9356 35.1774 19.5238 34.499C19.5547 34.4748 19.5843 34.4514 19.6139 34.4273C20.0738 35.1526 20.6004 35.8455 20.9792 36.6115C21.5883 37.8442 22.0936 39.13 22.6594 40.3855C22.8272 40.7585 22.7405 41.035 22.4573 41.2929C22.0812 41.6341 21.7251 41.9975 21.3401 42.3277C20.9029 42.7028 20.8926 42.7966 21.314 43.1785C21.7671 43.5888 22.218 44.0004 22.6628 44.4195C23.1221 44.8518 23.1379 44.9973 22.7756 45.653H22.7749ZM34.1087 33.9157C33.3656 32.9001 33.413 31.9763 34.1328 30.8883C34.2552 30.7028 34.4099 30.5374 34.5879 30.3147C34.6759 31.0324 35.0877 31.3723 35.6714 31.5591C36.7322 31.897 37.8191 32.0549 38.928 32.0045C39.315 31.9859 39.3934 32.1555 39.359 32.4775C39.1824 34.1198 37.9243 35.0374 36.5802 35.0816C35.549 35.116 34.7103 34.7375 34.1087 33.9157ZM37.2588 40.42C37.3482 40.3524 37.4031 40.3063 37.463 40.2656C38.3154 39.6913 39.0655 39.0066 39.6217 38.1365C39.8245 37.8194 40.0493 37.6236 40.4198 37.5078C41.4345 37.1913 42.0746 35.6848 41.1279 34.9078C41.0626 34.8547 41.0049 34.7292 41.0193 34.6513C41.704 31.0993 41.1293 27.3666 38.1972 24.9252C35.9677 23.0678 32.8665 22.6569 30.1447 23.5373C27.216 24.4846 25.2938 26.6681 24.3568 29.5473C23.9897 30.678 23.3111 32.2679 23.9787 33.4007C24.2351 33.8357 24.4991 34.2673 24.7569 34.6955C23.8494 35.5621 23.7113 36.1426 24.2083 36.9417C24.5417 37.4781 25.3241 37.8318 25.8115 37.6636C25.7194 37.4312 25.6211 37.2009 25.5372 36.9652C25.4575 36.7411 25.3935 36.5115 25.322 36.2833C26.9074 40.2559 30.1097 41.4252 34.009 41.4301C32.0704 41.641 30.2245 41.2336 28.4645 40.5365C26.886 42.5153 26.6571 44.8725 26.4742 47.2394C26.4701 47.2842 26.4667 47.3277 26.4632 47.3725C26.4509 47.3297 26.4392 47.287 26.4282 47.2442C26.2955 46.7561 26.1999 46.2769 26.0789 45.8054C25.5386 43.6984 25.0023 41.5893 24.4379 39.4886C24.0777 38.1462 23.6769 36.8148 23.2775 35.4835C23.2328 35.3353 23.0994 35.1395 22.9688 35.1029C21.7801 34.7727 20.5832 34.4783 19.3904 34.1611C19.1752 34.1046 18.9243 34.037 18.9628 33.7213C18.9972 33.4379 18.8267 33.1111 19.321 32.9773C20.0477 32.7815 20.6203 32.3189 21.0555 31.6805C21.1841 31.4916 21.4219 31.3447 21.6412 31.2592C22.0915 31.0834 22.5618 30.9614 23.0685 30.8042C22.7825 30.4429 22.5288 30.1444 22.3026 29.8272C22.207 29.6935 22.1679 29.5197 22.1025 29.3639C22.2593 29.3025 22.4119 29.2157 22.5748 29.1833C23.0004 29.0978 23.4308 29.0371 23.8831 28.9626L23.2073 27.0887C24.1574 26.7784 25.0649 26.4903 25.9043 25.8828C25.3976 25.6064 24.9302 25.3844 24.4984 25.1079C24.0605 24.8273 23.659 24.4915 23.1551 24.1151C24.7975 23.5587 26.3141 23.0644 27.6127 21.9881L24.3018 20.5927L27.423 17.6652L23.4163 17.0378L25.7765 12.9893L25.7098 12.9321L21.9039 14.3179C21.4316 12.6708 21.3106 11.0499 21.4769 9.37108C21.3559 9.40348 21.2673 9.41245 21.1923 9.45037C19.6922 10.2033 18.3393 11.145 17.317 12.5895C16.3387 11.2926 15.4718 9.97849 14.2433 8.91673C14.0721 10.5094 13.9208 12.0462 13.1515 13.4761C11.9904 12.7494 10.7522 12.3061 9.32638 12.1427C10.0771 13.3872 10.5061 14.6537 10.636 16.0326L5.63735 16.4201C5.67929 16.4994 5.69098 16.5373 5.71573 16.5635C5.77554 16.629 5.84016 16.6903 5.90616 16.7489C6.81845 17.568 7.6833 18.4236 8.2821 19.5171C8.65815 20.2038 8.36597 20.2989 7.78711 20.7078C6.96144 21.289 5.80922 21.8599 5.15818 22.6134C5.28399 22.6734 5.45242 22.7341 5.59748 22.7341C6.13165 22.821 9.51819 24.3136 8.79771 25.0017C8.14391 25.6257 7.50799 26.2676 6.8707 26.9081C6.7992 26.9784 6.76139 27.0825 6.70226 27.179C7.56849 27.4596 8.37697 27.7492 9.20126 27.9767C9.55944 28.0746 9.59381 28.2029 9.49825 28.531C9.2872 29.2557 9.12426 29.9941 8.92833 30.7794C9.68043 30.7221 10.3858 30.689 11.0843 30.6035C11.3414 30.5718 11.3868 30.6325 11.4012 30.8649C11.4349 31.3971 11.4968 31.9266 11.5511 32.5023L12.8628 31.9514C11.0183 29.3225 10.6622 26.3586 10.6567 23.327C10.6979 23.7966 10.7522 24.2668 10.777 24.737C10.8753 26.6026 11.3015 28.3897 11.9979 30.1209C12.5603 31.5185 13.4623 32.5409 14.9617 32.9318C15.2195 32.9994 15.2202 33.1752 15.2126 33.3724C15.2044 33.5813 15.2559 33.7861 14.952 33.8833C13.6039 34.3176 12.2633 34.7713 10.9282 35.2429C10.7742 35.2974 10.6058 35.4828 10.5583 35.6428C10.0915 37.2168 9.64056 38.797 9.17857 40.3724C9.05758 40.7834 8.90839 41.2122 8.7654 41.6514C3.8664 37.374 0.765168 31.0772 0.765168 24.0689C0.765168 11.2202 11.1881 0.767364 24 0.767364C36.8119 0.767364 47.2348 11.2202 47.2348 24.0689C47.2348 31.4488 43.796 38.0386 38.4412 42.3105C38.1841 41.6238 37.8294 40.9785 37.2588 40.42ZM32.2986 33.2042C32.0071 34.2901 31.2454 34.9761 30.1055 35.154C28.5965 35.3904 27.2724 34.6279 26.8173 33.2821C26.7932 33.2104 26.7678 33.1387 26.7561 33.0649C26.5959 32.0583 26.6083 32.0769 27.5962 32.0073C28.3738 31.9521 29.1541 31.8521 29.9151 31.6908C30.6266 31.5391 31.2839 31.2454 31.3052 30.2747C32.3206 31.0896 32.5949 32.0962 32.2979 33.2042H32.2986Z"/>
</svg>
