<svg viewBox="0 0 30 30" xmlns="http://www.w3.org/2000/svg" xmlns:xlink="http://www.w3.org/1999/xlink" width="30.000000" height="30.000000" fill="none">
	<rect id="sun 1" width="30.000000" height="30.000000" x="0.000000" y="0.000000" fill="rgb(255,255,255)" fill-opacity="0" />
	<g id="Group">
		<g id="Group">
			<path id="Vector" d="M15 8.4375C11.3818 8.4375 8.4375 11.3818 8.4375 15C8.4375 18.6182 11.3818 21.5625 15 21.5625C18.6182 21.5625 21.5625 18.6182 21.5625 15C21.5625 11.3818 18.6182 8.4375 15 8.4375ZM15 19.6875C12.4109 19.6875 10.3125 17.5891 10.3125 15C10.3125 12.4109 12.4109 10.3125 15 10.3125C17.5891 10.3125 19.6875 12.4109 19.6875 15C19.6875 17.5891 17.5891 19.6875 15 19.6875ZM15 6.5625C15.5176 6.5625 15.9375 6.14256 15.9375 5.625L15.9375 3.75C15.9375 3.23244 15.5176 2.8125 15 2.8125C14.4824 2.8125 14.0625 3.23244 14.0625 3.75L14.0625 5.625C14.0625 6.14256 14.4824 6.5625 15 6.5625ZM15 23.4375C14.4824 23.4375 14.0625 23.8574 14.0625 24.375L14.0625 26.25C14.0625 26.7676 14.4824 27.1875 15 27.1875C15.5176 27.1875 15.9375 26.7676 15.9375 26.25L15.9375 24.375C15.9375 23.8574 15.5176 23.4375 15 23.4375ZM22.2913 9.03322L23.617 7.70754C23.9832 7.34133 23.9832 6.74807 23.617 6.38186C23.2508 6.01564 22.6575 6.01564 22.2913 6.38186L20.9656 7.70754C20.5994 8.07375 20.5994 8.66701 20.9656 9.03322C21.3318 9.39943 21.9251 9.39943 22.2913 9.03322ZM7.70871 20.9668L6.38303 22.2925C6.01682 22.6587 6.01682 23.2519 6.38303 23.6181C6.74924 23.9844 7.3425 23.9844 7.70871 23.6181L9.03439 22.2925C9.40061 21.9251 9.40061 21.333 9.03439 20.9668C8.66824 20.6006 8.07492 20.5993 7.70871 20.9668ZM6.5625 15C6.5625 14.4824 6.14256 14.0625 5.625 14.0625L3.75 14.0625C3.23244 14.0625 2.8125 14.4824 2.8125 15C2.8125 15.5176 3.23244 15.9375 3.75 15.9375L5.625 15.9375C6.14256 15.9375 6.5625 15.5176 6.5625 15ZM26.25 14.0625L24.375 14.0625C23.8574 14.0625 23.4375 14.4824 23.4375 15C23.4375 15.5176 23.8574 15.9375 24.375 15.9375L26.25 15.9375C26.7676 15.9375 27.1875 15.5176 27.1875 15C27.1875 14.4824 26.7676 14.0625 26.25 14.0625ZM7.70748 9.03322C8.07375 9.39943 8.66701 9.39943 9.03316 9.03322C9.39943 8.66701 9.39943 8.07375 9.03316 7.70754L7.70748 6.38186C7.34127 6.01564 6.74807 6.01564 6.3818 6.38186C6.01559 6.74807 6.01559 7.34133 6.3818 7.70754L7.70748 9.03322ZM22.2925 20.9655C21.9251 20.5993 21.333 20.5993 20.9668 20.9655C20.6006 21.3318 20.5994 21.925 20.9668 22.2912L22.2925 23.6169C22.6587 23.9831 23.2519 23.9831 23.6181 23.6169C23.9844 23.2507 23.9844 22.6574 23.6181 22.2912L22.2925 20.9655Z" fill="rgb(151.915,151.915,154.085)" fill-rule="nonzero" />
		</g>
	</g>
</svg>
