<svg viewBox="0 0 24.375 24.375" xmlns="http://www.w3.org/2000/svg" width="24.375000" height="24.375000" fill="none">
	<path id="Vector" d="M12.1875 5.625C8.56934 5.625 5.625 8.56934 5.625 12.1875C5.625 15.8057 8.56934 18.75 12.1875 18.75C15.8057 18.75 18.75 15.8057 18.75 12.1875C18.75 8.56934 15.8057 5.625 12.1875 5.625ZM12.1875 16.875C9.59836 16.875 7.5 14.7766 7.5 12.1875C7.5 9.59836 9.59836 7.5 12.1875 7.5C14.7766 7.5 16.875 9.59836 16.875 12.1875C16.875 14.7766 14.7766 16.875 12.1875 16.875ZM12.1875 3.75C12.7051 3.75 13.125 3.33006 13.125 2.8125L13.125 0.9375C13.125 0.419941 12.7051 0 12.1875 0C11.6699 0 11.25 0.419941 11.25 0.9375L11.25 2.8125C11.25 3.33006 11.6699 3.75 12.1875 3.75ZM12.1875 20.625C11.6699 20.625 11.25 21.0449 11.25 21.5625L11.25 23.4375C11.25 23.9551 11.6699 24.375 12.1875 24.375C12.7051 24.375 13.125 23.9551 13.125 23.4375L13.125 21.5625C13.125 21.0449 12.7051 20.625 12.1875 20.625ZM19.4788 6.22072L20.8045 4.89504C21.1707 4.52883 21.1707 3.93557 20.8045 3.56936C20.4383 3.20314 19.845 3.20314 19.4788 3.56936L18.1531 4.89504C17.7869 5.26125 17.7869 5.85451 18.1531 6.22072C18.5193 6.58693 19.1126 6.58693 19.4788 6.22072ZM4.89621 18.1543L3.57053 19.48C3.20432 19.8462 3.20432 20.4394 3.57053 20.8056C3.93674 21.1719 4.53 21.1719 4.89621 20.8056L6.22189 19.48C6.58811 19.1126 6.58811 18.5205 6.22189 18.1543C5.85574 17.7881 5.26242 17.7868 4.89621 18.1543ZM3.75 12.1875C3.75 11.6699 3.33006 11.25 2.8125 11.25L0.9375 11.25C0.419941 11.25 0 11.6699 0 12.1875C0 12.7051 0.419941 13.125 0.9375 13.125L2.8125 13.125C3.33006 13.125 3.75 12.7051 3.75 12.1875ZM23.4375 11.25L21.5625 11.25C21.0449 11.25 20.625 11.6699 20.625 12.1875C20.625 12.7051 21.0449 13.125 21.5625 13.125L23.4375 13.125C23.9551 13.125 24.375 12.7051 24.375 12.1875C24.375 11.6699 23.9551 11.25 23.4375 11.25ZM4.89498 6.22072C5.26125 6.58693 5.85451 6.58693 6.22066 6.22072C6.58693 5.85451 6.58693 5.26125 6.22066 4.89504L4.89498 3.56936C4.52877 3.20314 3.93557 3.20314 3.5693 3.56936C3.20309 3.93557 3.20309 4.52883 3.5693 4.89504L4.89498 6.22072ZM19.48 18.153C19.1126 17.7868 18.5205 17.7868 18.1543 18.153C17.7881 18.5193 17.7869 19.1125 18.1543 19.4787L19.48 20.8044C19.8462 21.1706 20.4394 21.1706 20.8056 20.8044C21.1719 20.4382 21.1719 19.8449 20.8056 19.4787L19.48 18.153Z" fill="rgb(151.915,151.915,154.085)" fill-rule="nonzero" />
</svg>
